<svg width="50" height="50" viewBox="0 0 50 50" fill="none" xmlns="http://www.w3.org/2000/svg">
<circle cx="25" cy="25" r="23.5" stroke="#2B2B2B" stroke-width="3"/>
<circle cx="25" cy="25" r="19" fill="#2B2B2B"/>
<circle cx="25" cy="25" r="20.5" stroke="#8D1FFC" stroke-width="3"/>
<path d="M21.5671 39.4184V10.8032C21.5671 10.4547 21.791 10.2239 22.1268 10.2239C22.4627 10.2239 22.6865 10.4547 22.6865 10.8032V39.4184C22.6865 39.7674 22.4627 40 22.1268 40C21.791 40 21.5671 39.7674 21.5671 39.4184Z" fill="#8D1FFC"/>
<path d="M29.0872 19.8787L20.4096 11.2012C20.1632 10.9548 20.1583 10.6332 20.3958 10.3958C20.6332 10.1583 20.9548 10.1632 21.2012 10.4096L29.8787 19.0872C30.1255 19.3339 30.1171 19.6713 29.8942 19.8942C29.6713 20.1171 29.3339 20.1255 29.0872 19.8787Z" fill="#8D1FFC"/>
<path d="M29.0872 35.1026L20.4096 26.4251C20.1632 26.1787 20.1583 25.8571 20.3958 25.6197C20.6332 25.3822 20.9548 25.3871 21.2012 25.6335L29.8787 34.3111C30.1255 34.5579 30.1171 34.8952 29.8942 35.1181C29.6713 35.341 29.3339 35.3494 29.0872 35.1026Z" fill="#8D1FFC"/>
<path d="M20.4113 26.6991L29.0889 18.0216C29.3353 17.7752 29.6568 17.7702 29.8943 18.0077C30.1318 18.2452 30.1269 18.5667 29.8804 18.8131L21.2029 27.4907C20.9561 27.7374 20.6188 27.7291 20.3959 27.5062C20.173 27.2833 20.1646 26.9459 20.4113 26.6991Z" fill="#8D1FFC"/>
</svg>
